<?xml version="1.0" standalone="no"?>
<svg xmlns:xlink="http://www.w3.org/1999/xlink" id="wave" style="transform:rotate(0deg); transition: 0.3s" viewBox="0 0 1440 120" version="1.1" xmlns="http://www.w3.org/2000/svg"><defs><linearGradient id="sw-gradient-0" x1="0" x2="0" y1="1" y2="0"><stop stop-color="rgba(248, 248, 248, 1)" offset="0%"/><stop stop-color="rgba(248, 248, 248, 1)" offset="100%"/></linearGradient></defs><path style="transform:translate(0, 0px); opacity:1" fill="url(#sw-gradient-0)" d="M0,72L80,60C160,48,320,24,480,30C640,36,800,72,960,74C1120,76,1280,44,1440,30C1600,16,1760,20,1920,30C2080,40,2240,56,2400,64C2560,72,2720,72,2880,76C3040,80,3200,88,3360,76C3520,64,3680,32,3840,20C4000,8,4160,16,4320,28C4480,40,4640,56,4800,68C4960,80,5120,88,5280,86C5440,84,5600,72,5760,72C5920,72,6080,84,6240,92C6400,100,6560,104,6720,104C6880,104,7040,100,7200,92C7360,84,7520,72,7680,72C7840,72,8000,84,8160,90C8320,96,8480,96,8640,90C8800,84,8960,72,9120,64C9280,56,9440,52,9600,52C9760,52,9920,56,10080,50C10240,44,10400,28,10560,30C10720,32,10880,52,11040,52C11200,52,11360,32,11440,22L11520,12L11520,120L11440,120C11360,120,11200,120,11040,120C10880,120,10720,120,10560,120C10400,120,10240,120,10080,120C9920,120,9760,120,9600,120C9440,120,9280,120,9120,120C8960,120,8800,120,8640,120C8480,120,8320,120,8160,120C8000,120,7840,120,7680,120C7520,120,7360,120,7200,120C7040,120,6880,120,6720,120C6560,120,6400,120,6240,120C6080,120,5920,120,5760,120C5600,120,5440,120,5280,120C5120,120,4960,120,4800,120C4640,120,4480,120,4320,120C4160,120,4000,120,3840,120C3680,120,3520,120,3360,120C3200,120,3040,120,2880,120C2720,120,2560,120,2400,120C2240,120,2080,120,1920,120C1760,120,1600,120,1440,120C1280,120,1120,120,960,120C800,120,640,120,480,120C320,120,160,120,80,120L0,120Z"/></svg>